<svg width="352" height="105" viewBox="0 0 352 105" fill="none" xmlns="http://www.w3.org/2000/svg">
<g filter="url(#filter0_d_173_209)">
<rect x="15" y="15" width="322" height="75" rx="35" fill="white"/>
</g>
<path d="M65.6798 62.155C64.2125 62.155 62.9415 61.969 61.8668 61.597C60.8128 61.2043 59.9965 60.5843 59.4178 59.737C58.8392 58.869 58.5085 57.7117 58.4258 56.265L57.8678 43.772H62.2388L62.7658 54.746C62.8072 55.5933 62.9415 56.2443 63.1688 56.699C63.4168 57.133 63.7682 57.4327 64.2228 57.598C64.6775 57.7427 65.2665 57.815 65.9898 57.815C66.7752 57.815 67.3332 58.0217 67.6638 58.435C67.9945 58.8277 68.1598 59.3237 68.1598 59.923C68.1598 60.5637 67.9428 61.101 67.5088 61.535C67.0955 61.9483 66.4858 62.155 65.6798 62.155ZM60.0068 59.272C58.6222 59.582 57.2892 59.7267 56.0078 59.706C54.7265 59.6647 53.5795 59.4373 52.5668 59.024C51.5542 58.59 50.7482 57.97 50.1488 57.164C49.5702 56.358 49.2808 55.335 49.2808 54.095C49.2808 52.9997 49.5185 52.0077 49.9938 51.119C50.4898 50.2097 51.1718 49.414 52.0398 48.732C52.9285 48.05 53.9618 47.4713 55.1398 46.996C56.3178 46.5207 57.5992 46.159 58.9838 45.911L59.4178 50.313C58.5292 50.3543 57.7232 50.4783 56.9998 50.685C56.2972 50.871 55.6875 51.119 55.1708 51.429C54.6748 51.739 54.2925 52.0903 54.0238 52.483C53.7552 52.855 53.6208 53.258 53.6208 53.692C53.6208 54.0433 53.7448 54.3327 53.9928 54.56C54.2408 54.7873 54.5715 54.9733 54.9848 55.118C55.3982 55.242 55.8735 55.3143 56.4108 55.335C56.9482 55.3557 57.4958 55.3247 58.0538 55.242C58.6325 55.1593 59.2008 55.025 59.7588 54.839L60.0068 59.272ZM60.0998 40.579C59.5005 40.579 58.9838 40.3723 58.5498 39.959C58.1365 39.525 57.9298 39.0187 57.9298 38.44C57.9298 37.8407 58.1365 37.324 58.5498 36.89C58.9838 36.456 59.5005 36.239 60.0998 36.239C60.6785 36.239 61.1745 36.456 61.5878 36.89C62.0012 37.324 62.2078 37.8407 62.2078 38.44C62.2078 39.0187 62.0012 39.525 61.5878 39.959C61.1745 40.3723 60.6785 40.579 60.0998 40.579ZM54.7368 40.548C54.1375 40.548 53.6208 40.3413 53.1868 39.928C52.7735 39.494 52.5668 38.9877 52.5668 38.409C52.5668 37.8097 52.7735 37.293 53.1868 36.859C53.6208 36.425 54.1375 36.208 54.7368 36.208C55.3155 36.208 55.8115 36.425 56.2248 36.859C56.6382 37.293 56.8448 37.8097 56.8448 38.409C56.8448 38.9877 56.6382 39.494 56.2248 39.928C55.8115 40.3413 55.3155 40.548 54.7368 40.548ZM65.6694 62.155L65.9794 57.815C66.7234 57.815 67.3641 57.7427 67.9014 57.598C68.4388 57.4533 68.8934 57.164 69.2654 56.73C69.6374 56.2753 69.9474 55.614 70.1954 54.746C70.4641 53.878 70.7018 52.7207 70.9084 51.274L74.9694 51.956C74.9281 52.266 74.8661 52.6277 74.7834 53.041C74.7214 53.4543 74.6594 53.878 74.5974 54.312C74.5561 54.7253 74.5354 55.118 74.5354 55.49C74.5354 55.862 74.6078 56.1927 74.7524 56.482C74.8971 56.7713 75.1244 57.0193 75.4344 57.226C75.7651 57.412 76.1888 57.5567 76.7054 57.66C77.2428 57.7633 77.8938 57.815 78.6584 57.815C79.4438 57.815 80.0018 58.0217 80.3324 58.435C80.6631 58.8277 80.8284 59.3237 80.8284 59.923C80.8284 60.5637 80.6114 61.101 80.1774 61.535C79.7641 61.9483 79.1544 62.155 78.3484 62.155C77.4184 62.155 76.5711 62.0827 75.8064 61.938C75.0624 61.7933 74.4114 61.5557 73.8534 61.225C73.3161 60.8737 72.8718 60.419 72.5204 59.861C72.1898 59.2823 71.9831 58.5797 71.9004 57.753H73.3884C73.0164 58.745 72.5411 59.5407 71.9624 60.14C71.4044 60.7187 70.7741 61.1527 70.0714 61.442C69.3688 61.7313 68.6351 61.9173 67.8704 62C67.1264 62.1033 66.3928 62.155 65.6694 62.155ZM74.3184 69.347C73.7191 69.347 73.2024 69.13 72.7684 68.696C72.3551 68.2827 72.1484 67.7867 72.1484 67.208C72.1484 66.6087 72.3551 66.092 72.7684 65.658C73.2024 65.224 73.7191 65.007 74.3184 65.007C74.8971 65.007 75.3931 65.224 75.8064 65.658C76.2198 66.092 76.4264 66.6087 76.4264 67.208C76.4264 67.7867 76.2198 68.2827 75.8064 68.696C75.3931 69.13 74.8971 69.347 74.3184 69.347ZM68.9554 69.347C68.3561 69.347 67.8394 69.13 67.4054 68.696C66.9921 68.2827 66.7854 67.7867 66.7854 67.208C66.7854 66.6087 66.9921 66.092 67.4054 65.658C67.8394 65.224 68.3561 65.007 68.9554 65.007C69.5341 65.007 70.0301 65.224 70.4434 65.658C70.8568 66.092 71.0634 66.6087 71.0634 67.208C71.0634 67.7867 70.8568 68.2827 70.4434 68.696C70.0301 69.13 69.5341 69.347 68.9554 69.347ZM78.354 62.155L78.664 57.815C79.346 57.815 79.904 57.7633 80.338 57.66C80.772 57.536 81.1233 57.2777 81.392 56.885C81.6813 56.4717 81.9293 55.862 82.136 55.056C82.3633 54.2293 82.6113 53.1133 82.88 51.708L86.91 52.452C86.8273 52.9067 86.7137 53.475 86.569 54.157C86.445 54.839 86.383 55.428 86.383 55.924C86.383 56.3167 86.4553 56.6577 86.6 56.947C86.7653 57.2157 87.034 57.4327 87.406 57.598C87.7987 57.7427 88.336 57.815 89.018 57.815C89.5553 57.815 90.01 57.7633 90.382 57.66C90.7747 57.536 91.1053 57.2777 91.374 56.885C91.6633 56.4717 91.9113 55.8413 92.118 54.994C92.3453 54.126 92.5623 52.9583 92.769 51.491L96.861 52.142C96.7783 52.6173 96.6957 53.1237 96.613 53.661C96.5303 54.1983 96.458 54.6943 96.396 55.149C96.334 55.6037 96.303 55.9757 96.303 56.265C96.303 56.5337 96.3753 56.792 96.52 57.04C96.6853 57.2673 96.9747 57.4533 97.388 57.598C97.822 57.7427 98.4213 57.815 99.186 57.815C100.116 57.815 100.798 57.6187 101.232 57.226C101.687 56.8127 101.914 56.1927 101.914 55.366C101.914 54.8907 101.904 54.3843 101.883 53.847C101.862 53.289 101.821 52.669 101.759 51.987C101.718 51.2843 101.635 50.4887 101.511 49.6L105.51 49.29C105.655 51.0673 105.82 52.514 106.006 53.63C106.192 54.746 106.44 55.614 106.75 56.234C107.081 56.8333 107.515 57.2467 108.052 57.474C108.61 57.7013 109.333 57.815 110.222 57.815C111.007 57.815 111.565 58.0217 111.896 58.435C112.247 58.8277 112.423 59.3237 112.423 59.923C112.423 60.5637 112.206 61.101 111.772 61.535C111.359 61.9483 110.739 62.155 109.912 62.155C109.354 62.155 108.775 62.1033 108.176 62C107.577 61.9173 106.998 61.7417 106.44 61.473C105.882 61.1837 105.386 60.7703 104.952 60.233C104.518 59.6957 104.177 58.9827 103.929 58.094L104.487 58.28C104.198 59.3133 103.805 60.109 103.309 60.667C102.813 61.225 102.203 61.6177 101.48 61.845C100.757 62.0517 99.8887 62.155 98.876 62.155C97.946 62.155 97.1193 62.031 96.396 61.783C95.6727 61.535 95.094 61.132 94.66 60.574C94.2467 59.9953 94.0297 59.2203 94.009 58.249H95.063C94.6497 59.4063 94.1743 60.264 93.637 60.822C93.0997 61.38 92.4487 61.7417 91.684 61.907C90.9193 62.0723 89.9583 62.155 88.801 62.155C88.0983 62.155 87.406 62.0827 86.724 61.938C86.042 61.7727 85.4323 61.411 84.895 60.853C84.3577 60.2743 83.965 59.365 83.717 58.125L85.391 58.063C84.957 59.2823 84.3887 60.1813 83.686 60.76C83.004 61.3387 82.2187 61.721 81.33 61.907C80.4413 62.0723 79.4493 62.155 78.354 62.155ZM109.929 62.155L110.239 57.815C110.983 57.815 111.624 57.7427 112.161 57.598C112.699 57.4533 113.153 57.164 113.525 56.73C113.897 56.2753 114.207 55.614 114.455 54.746C114.724 53.878 114.962 52.7207 115.168 51.274L119.229 51.956C119.188 52.266 119.126 52.6277 119.043 53.041C118.981 53.4543 118.919 53.878 118.857 54.312C118.816 54.7253 118.795 55.118 118.795 55.49C118.795 55.862 118.868 56.1927 119.012 56.482C119.157 56.7713 119.384 57.0193 119.694 57.226C120.025 57.412 120.449 57.5567 120.965 57.66C121.503 57.7633 122.154 57.815 122.918 57.815C123.704 57.815 124.262 58.0217 124.592 58.435C124.923 58.8277 125.088 59.3237 125.088 59.923C125.088 60.5637 124.871 61.101 124.437 61.535C124.024 61.9483 123.414 62.155 122.608 62.155C121.678 62.155 120.831 62.0827 120.066 61.938C119.322 61.7933 118.671 61.5557 118.113 61.225C117.576 60.8737 117.132 60.419 116.78 59.861C116.45 59.2823 116.243 58.5797 116.16 57.753H117.648C117.276 58.745 116.801 59.5407 116.222 60.14C115.664 60.7187 115.034 61.1527 114.331 61.442C113.629 61.7313 112.895 61.9173 112.13 62C111.386 62.1033 110.653 62.155 109.929 62.155ZM118.578 69.347C117.979 69.347 117.462 69.13 117.028 68.696C116.615 68.2827 116.408 67.7867 116.408 67.208C116.408 66.6087 116.615 66.092 117.028 65.658C117.462 65.224 117.979 65.007 118.578 65.007C119.157 65.007 119.653 65.224 120.066 65.658C120.48 66.092 120.686 66.6087 120.686 67.208C120.686 67.7867 120.48 68.2827 120.066 68.696C119.653 69.13 119.157 69.347 118.578 69.347ZM113.215 69.347C112.616 69.347 112.099 69.13 111.665 68.696C111.252 68.2827 111.045 67.7867 111.045 67.208C111.045 66.6087 111.252 66.092 111.665 65.658C112.099 65.224 112.616 65.007 113.215 65.007C113.794 65.007 114.29 65.224 114.703 65.658C115.117 66.092 115.323 66.6087 115.323 67.208C115.323 67.7867 115.117 68.2827 114.703 68.696C114.29 69.13 113.794 69.347 113.215 69.347ZM122.614 62.155L122.924 57.815C123.833 57.815 124.546 57.753 125.063 57.629C125.6 57.505 125.982 57.2777 126.21 56.947C126.437 56.5957 126.551 56.0997 126.551 55.459C126.551 54.8803 126.468 54.188 126.303 53.382C126.158 52.576 125.962 51.739 125.714 50.871C125.466 50.003 125.218 49.2073 124.97 48.484L129.248 47.306C129.496 48.0087 129.744 48.825 129.992 49.755C130.24 50.685 130.446 51.646 130.612 52.638C130.798 53.6093 130.891 54.5497 130.891 55.459C130.891 56.5957 130.746 57.5567 130.457 58.342C130.167 59.1067 129.764 59.7473 129.248 60.264C128.752 60.76 128.152 61.1527 127.45 61.442C126.768 61.7107 126.013 61.8967 125.187 62C124.36 62.1033 123.502 62.155 122.614 62.155ZM123.823 44.082L123.296 41.912C124.019 41.788 124.556 41.6847 124.908 41.602C125.28 41.5193 125.672 41.4263 126.086 41.323L125.776 42.098C125.238 41.912 124.722 41.5503 124.226 41.013C123.75 40.455 123.513 39.8247 123.513 39.122C123.513 38.378 123.678 37.7787 124.009 37.324C124.339 36.8693 124.763 36.5387 125.28 36.332C125.796 36.1253 126.334 36.022 126.892 36.022C127.202 36.022 127.491 36.0427 127.76 36.084C128.049 36.1253 128.307 36.1873 128.535 36.27L128.287 38.502C128.08 38.4607 127.873 38.4193 127.667 38.378C127.46 38.3367 127.233 38.316 126.985 38.316C126.716 38.316 126.468 38.409 126.241 38.595C126.034 38.7603 125.931 38.967 125.931 39.215C125.931 39.5663 126.055 39.8763 126.303 40.145C126.551 40.4137 126.84 40.6307 127.171 40.796C127.522 40.9407 127.811 41.0233 128.039 41.044L126.334 41.23C126.892 41.0853 127.419 40.9407 127.915 40.796C128.411 40.6307 128.876 40.4653 129.31 40.3L129.93 42.377C129.413 42.563 128.803 42.7697 128.101 42.997C127.419 43.2037 126.706 43.4 125.962 43.586C125.238 43.772 124.525 43.9373 123.823 44.082ZM132.01 69.161L130.429 65.317C131.524 64.945 132.527 64.511 133.436 64.015C134.366 63.519 135.172 62.9713 135.854 62.372C136.536 61.7727 137.063 61.1217 137.435 60.419C137.807 59.6957 137.993 58.9207 137.993 58.094C137.993 57.226 137.797 56.2753 137.404 55.242C137.011 54.2087 136.536 53.1547 135.978 52.08L140.039 50.127C140.411 50.7677 140.731 51.46 141 52.204C141.289 52.9273 141.527 53.5783 141.713 54.157C141.899 54.7357 142.023 55.1283 142.085 55.335C142.374 56.327 142.767 56.9883 143.263 57.319C143.78 57.6497 144.606 57.815 145.743 57.815C146.528 57.815 147.086 58.0217 147.417 58.435C147.768 58.8277 147.944 59.3237 147.944 59.923C147.944 60.5637 147.727 61.101 147.293 61.535C146.859 61.9483 146.239 62.155 145.433 62.155C144.586 62.155 143.842 62.031 143.201 61.783C142.56 61.535 142.044 61.1733 141.651 60.698C141.279 60.2227 141.041 59.6647 140.938 59.024L142.085 59.675C141.961 60.7703 141.599 61.8037 141 62.775C140.421 63.767 139.667 64.6763 138.737 65.503C137.807 66.3297 136.763 67.053 135.606 67.673C134.449 68.293 133.25 68.789 132.01 69.161ZM145.47 62.155L145.78 57.815C146.731 57.815 147.413 57.722 147.826 57.536C148.24 57.3293 148.488 56.9573 148.57 56.42C148.653 55.862 148.674 55.056 148.632 54.002L148.074 39.308H152.445L153.065 54.312C153.107 55.5107 153.055 56.5957 152.91 57.567C152.786 58.5177 152.466 59.334 151.949 60.016C151.453 60.698 150.678 61.225 149.624 61.597C148.591 61.969 147.206 62.155 145.47 62.155ZM157.153 62L156.502 39.308H160.842L161.493 62H157.153ZM189.074 62.155C187.607 62.155 186.336 61.969 185.261 61.597C184.207 61.2043 183.391 60.5843 182.812 59.737C182.234 58.869 181.903 57.7117 181.82 56.265L181.262 43.772H185.633L186.16 54.746C186.202 55.5933 186.336 56.2443 186.563 56.699C186.811 57.133 187.163 57.4327 187.617 57.598C188.072 57.7427 188.661 57.815 189.384 57.815C190.17 57.815 190.728 58.0217 191.058 58.435C191.389 58.8277 191.554 59.3237 191.554 59.923C191.554 60.5637 191.337 61.101 190.903 61.535C190.49 61.9483 189.88 62.155 189.074 62.155ZM183.401 59.272C182.017 59.582 180.684 59.7267 179.402 59.706C178.121 59.6647 176.974 59.4373 175.961 59.024C174.949 58.59 174.143 57.97 173.543 57.164C172.965 56.358 172.675 55.335 172.675 54.095C172.675 52.9997 172.913 52.0077 173.388 51.119C173.884 50.2097 174.566 49.414 175.434 48.732C176.323 48.05 177.356 47.4713 178.534 46.996C179.712 46.5207 180.994 46.159 182.378 45.911L182.812 50.313C181.924 50.3543 181.118 50.4783 180.394 50.685C179.692 50.871 179.082 51.119 178.565 51.429C178.069 51.739 177.687 52.0903 177.418 52.483C177.15 52.855 177.015 53.258 177.015 53.692C177.015 54.0433 177.139 54.3327 177.387 54.56C177.635 54.7873 177.966 54.9733 178.379 55.118C178.793 55.242 179.268 55.3143 179.805 55.335C180.343 55.3557 180.89 55.3247 181.448 55.242C182.027 55.1593 182.595 55.025 183.153 54.839L183.401 59.272ZM183.494 40.579C182.895 40.579 182.378 40.3723 181.944 39.959C181.531 39.525 181.324 39.0187 181.324 38.44C181.324 37.8407 181.531 37.324 181.944 36.89C182.378 36.456 182.895 36.239 183.494 36.239C184.073 36.239 184.569 36.456 184.982 36.89C185.396 37.324 185.602 37.8407 185.602 38.44C185.602 39.0187 185.396 39.525 184.982 39.959C184.569 40.3723 184.073 40.579 183.494 40.579ZM178.131 40.548C177.532 40.548 177.015 40.3413 176.581 39.928C176.168 39.494 175.961 38.9877 175.961 38.409C175.961 37.8097 176.168 37.293 176.581 36.859C177.015 36.425 177.532 36.208 178.131 36.208C178.71 36.208 179.206 36.425 179.619 36.859C180.033 37.293 180.239 37.8097 180.239 38.409C180.239 38.9877 180.033 39.494 179.619 39.928C179.206 40.3413 178.71 40.548 178.131 40.548ZM209.338 62.155C208.387 62.155 207.499 62.0827 206.672 61.938C205.866 61.7933 205.122 61.5453 204.44 61.194C203.758 60.822 203.148 60.3157 202.611 59.675C202.094 59.0343 201.66 58.2283 201.309 57.257L203.758 55.304C204.13 55.9653 204.585 56.482 205.122 56.854C205.659 57.2053 206.3 57.4533 207.044 57.598C207.788 57.7427 208.656 57.815 209.648 57.815C210.433 57.815 210.991 58.0217 211.322 58.435C211.653 58.8277 211.818 59.3237 211.818 59.923C211.818 60.5637 211.601 61.101 211.167 61.535C210.754 61.9483 210.144 62.155 209.338 62.155ZM189.064 62.155L189.374 57.815C190.49 57.815 191.596 57.753 192.691 57.629C193.786 57.505 194.851 57.319 195.884 57.071C196.917 56.823 197.899 56.5027 198.829 56.11C199.78 55.7173 200.668 55.242 201.495 54.684C200.875 54.312 200.203 53.9917 199.48 53.723C198.757 53.4543 197.982 53.258 197.155 53.134C196.349 52.9893 195.491 52.917 194.582 52.917C194.251 52.917 193.9 52.9273 193.528 52.948C193.177 52.9687 192.815 53.01 192.443 53.072C192.071 53.1133 191.699 53.1753 191.327 53.258L190.707 49.011C191.306 48.8457 191.937 48.732 192.598 48.67C193.28 48.5873 193.879 48.546 194.396 48.546C195.512 48.546 196.535 48.67 197.465 48.918C198.416 49.166 199.284 49.476 200.069 49.848C200.875 50.22 201.619 50.592 202.301 50.964C203.004 51.336 203.665 51.646 204.285 51.894C204.926 52.142 205.546 52.266 206.145 52.266H207.292L207.788 56.389C206.899 56.4303 206.062 56.606 205.277 56.916C204.512 57.2053 203.748 57.5773 202.983 58.032C202.239 58.466 201.433 58.9207 200.565 59.396C199.718 59.8713 198.757 60.3157 197.682 60.729C196.607 61.1423 195.367 61.4833 193.962 61.752C192.557 62.0207 190.924 62.155 189.064 62.155ZM209.347 62.155L209.657 57.846C210.463 57.8667 211.207 57.8563 211.889 57.815C212.571 57.7737 213.181 57.7117 213.718 57.629C214.276 57.5463 214.762 57.4533 215.175 57.35C215.609 57.2467 215.971 57.1537 216.26 57.071C216.963 56.8437 217.562 56.575 218.058 56.265C218.554 55.9343 218.937 55.5623 219.205 55.149C219.474 54.7357 219.608 54.2913 219.608 53.816C219.608 53.444 219.526 53.072 219.36 52.7C219.216 52.3073 218.999 51.987 218.709 51.739C218.42 51.491 218.079 51.367 217.686 51.367C217.314 51.367 216.973 51.4807 216.663 51.708C216.353 51.9353 216.105 52.2453 215.919 52.638C215.733 53.01 215.64 53.444 215.64 53.94C215.64 54.374 215.744 54.7873 215.95 55.18C216.157 55.552 216.446 55.9137 216.818 56.265C217.19 56.6163 217.635 56.947 218.151 57.257L214.028 58.838C213.574 58.404 213.14 57.939 212.726 57.443C212.334 56.947 212.003 56.389 211.734 55.769C211.486 55.1283 211.362 54.4153 211.362 53.63C211.362 52.6793 211.548 51.8113 211.92 51.026C212.292 50.2407 212.788 49.569 213.408 49.011C214.028 48.4323 214.721 47.988 215.485 47.678C216.25 47.368 217.015 47.213 217.779 47.213C219.019 47.213 220.094 47.5023 221.003 48.081C221.913 48.6597 222.615 49.414 223.111 50.344C223.628 51.274 223.886 52.2867 223.886 53.382C223.886 54.3947 223.7 55.304 223.328 56.11C222.956 56.8953 222.45 57.598 221.809 58.218C221.189 58.8173 220.497 59.3443 219.732 59.799C218.988 60.2537 218.234 60.636 217.469 60.946C217.097 61.1113 216.632 61.2663 216.074 61.411C215.516 61.5557 214.886 61.69 214.183 61.814C213.481 61.9173 212.726 62 211.92 62.062C211.114 62.124 210.257 62.155 209.347 62.155ZM225.715 62.155C224.517 62.155 223.339 62.093 222.181 61.969C221.024 61.845 219.949 61.659 218.957 61.411C217.986 61.163 217.139 60.8633 216.415 60.512L218.554 57.164C219.174 57.3293 219.898 57.4637 220.724 57.567C221.572 57.6497 222.45 57.7117 223.359 57.753C224.289 57.7943 225.178 57.815 226.025 57.815C226.811 57.815 227.369 58.0217 227.699 58.435C228.051 58.8277 228.226 59.3237 228.226 59.923C228.226 60.5637 228.009 61.101 227.575 61.535C227.141 61.9483 226.521 62.155 225.715 62.155ZM217.81 44.33C217.17 44.33 216.622 44.113 216.167 43.679C215.733 43.245 215.516 42.7077 215.516 42.067C215.516 41.4263 215.733 40.8787 216.167 40.424C216.622 39.9693 217.17 39.742 217.81 39.742C218.43 39.742 218.957 39.9693 219.391 40.424C219.846 40.8787 220.073 41.4263 220.073 42.067C220.073 42.7077 219.846 43.245 219.391 43.679C218.957 44.113 218.43 44.33 217.81 44.33ZM256.848 62.155C255.794 62.155 254.782 62.062 253.81 61.876C252.839 61.6693 251.961 61.4007 251.175 61.07C250.411 60.7393 249.78 60.3673 249.284 59.954L252.074 56.947C252.818 57.257 253.583 57.4843 254.368 57.629C255.154 57.753 256.084 57.815 257.158 57.815C257.944 57.815 258.502 58.0217 258.832 58.435C259.184 58.8277 259.359 59.3237 259.359 59.923C259.359 60.5637 259.142 61.101 258.708 61.535C258.274 61.9483 257.654 62.155 256.848 62.155ZM241.813 62.558C239.891 62.558 238.29 62.4753 237.008 62.31C235.748 62.1447 234.725 61.907 233.939 61.597C233.154 61.287 232.534 60.915 232.079 60.481C231.625 60.047 231.253 59.5717 230.963 59.055L231.831 58.807C231.315 59.799 230.726 60.5327 230.064 61.008C229.403 61.4833 228.711 61.7933 227.987 61.938C227.264 62.0827 226.52 62.155 225.755 62.155L226.065 57.815C226.706 57.815 227.212 57.7117 227.584 57.505C227.956 57.2983 228.256 56.9573 228.483 56.482C228.731 56.0067 228.959 55.3763 229.165 54.591C229.372 53.8057 229.62 52.8447 229.909 51.708L233.846 52.669C233.702 53.227 233.578 53.7127 233.474 54.126C233.392 54.5393 233.319 54.901 233.257 55.211C233.216 55.5003 233.195 55.738 233.195 55.924C233.195 56.3167 233.288 56.668 233.474 56.978C233.66 57.2673 234.022 57.505 234.559 57.691C235.097 57.8563 235.882 57.9907 236.915 58.094C237.969 58.1767 239.344 58.218 241.038 58.218C242.836 58.218 244.335 58.156 245.533 58.032C246.732 57.8873 247.683 57.691 248.385 57.443C249.109 57.1743 249.625 56.854 249.935 56.482C250.245 56.0893 250.4 55.645 250.4 55.149C250.4 54.7563 250.307 54.3947 250.121 54.064C249.956 53.7127 249.677 53.4233 249.284 53.196C248.892 52.9687 248.385 52.855 247.765 52.855C247.021 52.855 246.267 53.041 245.502 53.413C244.758 53.7643 244.025 54.2397 243.301 54.839C242.578 55.4177 241.886 56.0687 241.224 56.792C240.584 57.5153 240.005 58.2387 239.488 58.962L234.838 58.435C235.644 57.133 236.554 55.8827 237.566 54.684C238.579 53.4853 239.664 52.4313 240.821 51.522C241.979 50.592 243.177 49.8583 244.417 49.321C245.657 48.7837 246.918 48.515 248.199 48.515C249.584 48.515 250.762 48.7837 251.733 49.321C252.705 49.8583 253.449 50.6023 253.965 51.553C254.482 52.5037 254.74 53.599 254.74 54.839C254.74 56.3477 254.306 57.6807 253.438 58.838C252.591 59.9953 251.217 60.9047 249.315 61.566C247.435 62.2273 244.934 62.558 241.813 62.558ZM256.876 62.155L257.186 57.815C258.137 57.815 258.819 57.722 259.232 57.536C259.646 57.3293 259.894 56.9573 259.976 56.42C260.059 55.862 260.08 55.056 260.038 54.002L259.48 39.308H263.851L264.471 54.312C264.513 55.5107 264.461 56.5957 264.316 57.567C264.192 58.5177 263.872 59.334 263.355 60.016C262.859 60.698 262.084 61.225 261.03 61.597C259.997 61.969 258.612 62.155 256.876 62.155ZM268.56 62L267.909 39.308H272.249L272.9 62H268.56Z" fill="#204F6A"/>
<defs>
<filter id="filter0_d_173_209" x="0" y="0" width="352" height="105" filterUnits="userSpaceOnUse" color-interpolation-filters="sRGB">
<feFlood flood-opacity="0" result="BackgroundImageFix"/>
<feColorMatrix in="SourceAlpha" type="matrix" values="0 0 0 0 0 0 0 0 0 0 0 0 0 0 0 0 0 0 127 0" result="hardAlpha"/>
<feOffset/>
<feGaussianBlur stdDeviation="7.5"/>
<feComposite in2="hardAlpha" operator="out"/>
<feColorMatrix type="matrix" values="0 0 0 0 0 0 0 0 0 0 0 0 0 0 0 0 0 0 0.25 0"/>
<feBlend mode="normal" in2="BackgroundImageFix" result="effect1_dropShadow_173_209"/>
<feBlend mode="normal" in="SourceGraphic" in2="effect1_dropShadow_173_209" result="shape"/>
</filter>
</defs>
</svg>
