<svg width="138" height="84" viewBox="0 0 238 84" fill="none" xmlns="http://www.w3.org/2000/svg">
<g filter="url(#filter0_i_111_521)">
<path d="M21.945 63.425C16.675 63.425 12.595 62.8867 9.705 61.81C6.87167 60.7333 4.88833 59.0617 3.755 56.795C2.62167 54.4717 1.97 51.5533 1.8 48.04L0.0150003 0.779996H11.915L13.7 42.345C13.8133 44.9517 14.0967 46.9067 14.55 48.21C15.0033 49.5133 15.8533 50.3917 17.1 50.845C18.4033 51.2983 20.3017 51.525 22.795 51.525C24.9483 51.525 26.4783 52.0917 27.385 53.225C28.3483 54.3017 28.83 55.6617 28.83 57.305C28.83 59.0617 28.235 60.535 27.045 61.725C25.855 62.8583 24.155 63.425 21.945 63.425ZM56.6555 63.68C54.1055 63.68 51.4705 63.3683 48.7505 62.745C46.0872 62.1217 43.5089 61.1867 41.0155 59.94C38.5222 58.6933 36.2839 57.135 34.3005 55.265C32.3172 53.395 30.7305 51.2417 29.5405 48.805C28.4072 46.3117 27.8405 43.5067 27.8405 40.39C27.8405 37.84 28.3789 35.4883 29.4555 33.335C30.5322 31.1817 32.1189 29.4533 34.2155 28.15C36.3689 26.79 38.9755 26.11 42.0355 26.11C44.9255 26.11 47.4189 26.8183 49.5155 28.235C51.6689 29.595 53.3405 31.38 54.5305 33.59C55.7205 35.7433 56.3155 38.01 56.3155 40.39C56.3155 44.1867 55.3805 47.53 53.5105 50.42C51.6405 53.2533 49.0622 55.6333 45.7755 57.56C42.5455 59.4867 38.8905 60.96 34.8105 61.98C30.7305 62.9433 26.4805 63.425 22.0605 63.425L22.9105 51.525C26.1405 51.525 28.9455 51.44 31.3255 51.27C33.7622 51.1 35.8589 50.7317 37.6155 50.165C39.3722 49.5983 40.9022 48.7483 42.2055 47.615C43.5089 46.4817 44.5005 45.235 45.1805 43.875C45.9172 42.4583 46.2855 41.07 46.2855 39.71C46.2855 38.8033 46.1439 37.9533 45.8605 37.16C45.6339 36.3667 45.2372 35.715 44.6705 35.205C44.1605 34.6383 43.4805 34.355 42.6305 34.355C41.7239 34.355 40.9589 34.6383 40.3355 35.205C39.7689 35.715 39.3155 36.395 38.9755 37.245C38.6922 38.095 38.5505 39.0017 38.5505 39.965C38.5505 41.9483 39.0605 43.7333 40.0805 45.32C41.1572 46.9067 42.5739 48.2383 44.3305 49.315C46.0872 50.3917 48.0139 51.2133 50.1105 51.78C52.2639 52.3467 54.4455 52.63 56.6555 52.63C58.4122 52.63 59.6589 52.3467 60.3955 51.78C61.1322 51.2133 61.5005 50.4483 61.5005 49.485C61.5005 48.805 61.3305 48.0967 60.9905 47.36C60.7072 46.5667 60.0555 45.6033 59.0355 44.47C58.0155 43.3367 56.4572 41.9483 54.3605 40.305C52.2639 38.605 49.4589 36.5083 45.9455 34.015C42.4322 31.5217 38.0122 28.49 32.6855 24.92L39.2305 15.655C45.2372 19.905 50.2522 23.6167 54.2755 26.79C58.3555 29.9633 61.6422 32.74 64.1355 35.12C66.6289 37.5 68.5272 39.5967 69.8305 41.41C71.1905 43.1667 72.0972 44.7817 72.5506 46.255C73.0039 47.7283 73.2306 49.2017 73.2306 50.675C73.2306 53.395 72.5789 55.7183 71.2756 57.645C69.9722 59.5717 68.0739 61.0733 65.5805 62.15C63.1439 63.17 60.1689 63.68 56.6555 63.68ZM103.459 63.425C98.1887 63.425 94.1087 62.8867 91.2187 61.81C88.3853 60.7333 86.402 59.0617 85.2687 56.795C84.1353 54.4717 83.4837 51.5533 83.3137 48.04L81.5287 0.779996H93.4287L95.2137 42.345C95.327 44.9517 95.6103 46.9067 96.0637 48.21C96.517 49.5133 97.367 50.3917 98.6137 50.845C99.917 51.2983 101.815 51.525 104.309 51.525C106.462 51.525 107.992 52.0917 108.899 53.225C109.862 54.3017 110.344 55.6617 110.344 57.305C110.344 59.0617 109.749 60.535 108.559 61.725C107.369 62.8583 105.669 63.425 103.459 63.425ZM103.574 63.425L104.424 51.525C106.578 51.525 108.278 51.3267 109.524 50.93C110.828 50.5333 111.848 49.74 112.584 48.55C113.378 47.3033 114.029 45.49 114.539 43.11C115.106 40.73 115.673 37.5567 116.239 33.59L127.374 35.46C127.261 36.31 127.091 37.3017 126.864 38.435C126.694 39.5683 126.524 40.73 126.354 41.92C126.241 43.0533 126.184 44.13 126.184 45.15C126.184 46.51 126.468 47.6717 127.034 48.635C127.658 49.5417 128.734 50.25 130.264 50.76C131.851 51.27 134.118 51.525 137.064 51.525C139.218 51.525 140.748 52.0917 141.654 53.225C142.561 54.3017 143.014 55.6617 143.014 57.305C143.014 59.0617 142.419 60.535 141.229 61.725C140.096 62.8583 138.424 63.425 136.214 63.425C132.304 63.425 129.131 63.0567 126.694 62.32C124.258 61.5833 122.444 60.3367 121.254 58.58C120.064 56.8233 119.299 54.415 118.959 51.355H123.039C122.019 54.075 120.829 56.2567 119.469 57.9C118.109 59.4867 116.579 60.6767 114.879 61.47C113.179 62.2633 111.366 62.7733 109.439 63C107.569 63.2833 105.614 63.425 103.574 63.425ZM120.914 24.92C119.158 24.92 117.656 24.325 116.409 23.135C115.219 21.945 114.624 20.4717 114.624 18.715C114.624 16.9583 115.219 15.4567 116.409 14.21C117.656 12.9633 119.158 12.34 120.914 12.34C122.614 12.34 124.059 12.9633 125.249 14.21C126.496 15.4567 127.119 16.9583 127.119 18.715C127.119 20.4717 126.496 21.945 125.249 23.135C124.059 24.325 122.614 24.92 120.914 24.92ZM136.196 63.425L137.046 51.525C139.086 51.525 140.843 51.3267 142.316 50.93C143.79 50.5333 145.036 49.74 146.056 48.55C147.076 47.3033 147.926 45.49 148.606 43.11C149.343 40.73 149.995 37.5567 150.561 33.59L161.696 35.46C161.583 36.31 161.413 37.3017 161.186 38.435C161.016 39.5683 160.846 40.73 160.676 41.92C160.563 43.0533 160.506 44.13 160.506 45.15C160.506 46.17 160.705 47.0767 161.101 47.87C161.498 48.6633 162.121 49.3433 162.971 49.91C163.878 50.42 165.04 50.8167 166.456 51.1C167.93 51.3833 169.715 51.525 171.811 51.525C173.965 51.525 175.495 52.0917 176.401 53.225C177.308 54.3017 177.761 55.6617 177.761 57.305C177.761 59.0617 177.166 60.535 175.976 61.725C174.843 62.8583 173.171 63.425 170.961 63.425C168.411 63.425 166.088 63.2267 163.991 62.83C161.951 62.4333 160.166 61.7817 158.636 60.875C157.163 59.9117 155.945 58.665 154.981 57.135C154.075 55.5483 153.508 53.6217 153.281 51.355H157.361C156.341 54.075 155.038 56.2567 153.451 57.9C151.921 59.4867 150.193 60.6767 148.266 61.47C146.34 62.2633 144.328 62.7733 142.231 63C140.191 63.2833 138.18 63.425 136.196 63.425ZM159.911 83.145C158.268 83.145 156.851 82.55 155.661 81.36C154.528 80.2267 153.961 78.8667 153.961 77.28C153.961 75.6367 154.528 74.22 155.661 73.03C156.851 71.84 158.268 71.245 159.911 71.245C161.498 71.245 162.858 71.84 163.991 73.03C165.125 74.22 165.691 75.6367 165.691 77.28C165.691 78.8667 165.125 80.2267 163.991 81.36C162.858 82.55 161.498 83.145 159.911 83.145ZM145.206 83.145C143.563 83.145 142.146 82.55 140.956 81.36C139.823 80.2267 139.256 78.8667 139.256 77.28C139.256 75.6367 139.823 74.22 140.956 73.03C142.146 71.84 143.563 71.245 145.206 71.245C146.793 71.245 148.153 71.84 149.286 73.03C150.42 74.22 150.986 75.6367 150.986 77.28C150.986 78.8667 150.42 80.2267 149.286 81.36C148.153 82.55 146.793 83.145 145.206 83.145ZM170.977 63.425L171.827 51.61C174.037 51.6667 176.077 51.6383 177.947 51.525C179.817 51.4117 181.488 51.2417 182.962 51.015C184.492 50.7883 185.823 50.5333 186.957 50.25C188.147 49.9667 189.138 49.7117 189.932 49.485C191.858 48.8617 193.502 48.125 194.862 47.275C196.222 46.3683 197.27 45.3483 198.007 44.215C198.743 43.0817 199.112 41.8633 199.112 40.56C199.112 39.54 198.885 38.52 198.432 37.5C198.035 36.4233 197.44 35.545 196.647 34.865C195.853 34.185 194.918 33.845 193.842 33.845C192.822 33.845 191.887 34.1567 191.037 34.78C190.187 35.4033 189.507 36.2533 188.997 37.33C188.487 38.35 188.232 39.54 188.232 40.9C188.232 42.09 188.515 43.2233 189.082 44.3C189.648 45.32 190.442 46.3117 191.462 47.275C192.482 48.2383 193.7 49.145 195.117 49.995L183.812 54.33C182.565 53.14 181.375 51.865 180.242 50.505C179.165 49.145 178.258 47.615 177.522 45.915C176.842 44.1583 176.502 42.2033 176.502 40.05C176.502 37.4433 177.012 35.0633 178.032 32.91C179.052 30.7567 180.412 28.915 182.112 27.385C183.812 25.7983 185.71 24.58 187.807 23.73C189.903 22.88 192 22.455 194.097 22.455C197.497 22.455 200.443 23.2483 202.937 24.835C205.43 26.4217 207.357 28.49 208.717 31.04C210.133 33.59 210.842 36.3667 210.842 39.37C210.842 42.1467 210.332 44.64 209.312 46.85C208.292 49.0033 206.903 50.93 205.147 52.63C203.447 54.2733 201.548 55.7183 199.452 56.965C197.412 58.2117 195.343 59.26 193.247 60.11C192.227 60.5633 190.952 60.9883 189.422 61.385C187.892 61.7817 186.163 62.15 184.237 62.49C182.31 62.7733 180.242 63 178.032 63.17C175.822 63.34 173.47 63.425 170.977 63.425ZM215.857 63.425C212.57 63.425 209.34 63.255 206.167 62.915C202.993 62.575 200.047 62.065 197.327 61.385C194.663 60.705 192.34 59.8833 190.357 58.92L196.222 49.74C197.922 50.1933 199.905 50.5617 202.172 50.845C204.495 51.0717 206.903 51.2417 209.397 51.355C211.947 51.4683 214.383 51.525 216.707 51.525C218.86 51.525 220.39 52.0917 221.297 53.225C222.26 54.3017 222.742 55.6617 222.742 57.305C222.742 59.0617 222.147 60.535 220.957 61.725C219.767 62.8583 218.067 63.425 215.857 63.425ZM201.577 14.72C199.933 14.72 198.517 14.1533 197.327 13.02C196.193 11.83 195.627 10.4417 195.627 8.855C195.627 7.21167 196.193 5.795 197.327 4.605C198.517 3.415 199.933 2.82 201.577 2.82C203.163 2.82 204.523 3.415 205.657 4.605C206.79 5.795 207.357 7.21167 207.357 8.855C207.357 10.4417 206.79 11.83 205.657 13.02C204.523 14.1533 203.163 14.72 201.577 14.72ZM186.872 14.635C185.228 14.635 183.812 14.0683 182.622 12.935C181.488 11.745 180.922 10.3567 180.922 8.77C180.922 7.12666 181.488 5.71 182.622 4.52C183.812 3.33 185.228 2.735 186.872 2.735C188.458 2.735 189.818 3.33 190.952 4.52C192.085 5.71 192.652 7.12666 192.652 8.77C192.652 10.3567 192.085 11.745 190.952 12.935C189.818 14.0683 188.458 14.635 186.872 14.635ZM217.375 78.555V72.605L237.435 66.655V72.775L217.375 78.555ZM215.967 63.425L216.817 51.525C219.423 51.525 221.293 51.27 222.427 50.76C223.56 50.1933 224.24 49.1733 224.467 47.7C224.693 46.17 224.75 43.96 224.637 41.07L223.107 0.779996H235.092L236.792 41.92C236.905 45.2067 236.763 48.1817 236.367 50.845C236.027 53.4517 235.148 55.69 233.732 57.56C232.372 59.43 230.247 60.875 227.357 61.895C224.523 62.915 220.727 63.425 215.967 63.425Z" fill="#B4B4C1"/>
</g>
<defs>
<filter id="filter0_i_111_521" x="0.015625" y="0.779999" width="237.42" height="82.365" filterUnits="userSpaceOnUse" color-interpolation-filters="sRGB">
<feFlood flood-opacity="0" result="BackgroundImageFix"/>
<feBlend mode="normal" in="SourceGraphic" in2="BackgroundImageFix" result="shape"/>
<feColorMatrix in="SourceAlpha" type="matrix" values="0 0 0 0 0 0 0 0 0 0 0 0 0 0 0 0 0 0 127 0" result="hardAlpha"/>
<feOffset/>
<feGaussianBlur stdDeviation="7.5"/>
<feComposite in2="hardAlpha" operator="arithmetic" k2="-1" k3="1"/>
<feColorMatrix type="matrix" values="0 0 0 0 0 0 0 0 0 0 0 0 0 0 0 0 0 0 0.4 0"/>
<feBlend mode="normal" in2="shape" result="effect1_innerShadow_111_521"/>
</filter>
</defs>
</svg>
