<svg width="66" height="63" viewBox="0 0 66 63" fill="none" xmlns="http://www.w3.org/2000/svg">
<path d="M22.7565 20.2109L30.5519 4.5121C30.7788 4.05777 31.1278 3.67564 31.5597 3.40856C31.9917 3.14147 32.4895 3 32.9973 3C33.5051 3 34.0029 3.14147 34.4349 3.40856C34.8668 3.67564 35.2158 4.05777 35.4427 4.5121L43.2381 20.2109L60.6653 22.7434C61.1679 22.8131 61.6409 23.0227 62.0301 23.3483C62.4193 23.6739 62.7092 24.1024 62.8666 24.5849C63.0239 25.0673 63.0425 25.5843 62.9201 26.0768C62.7978 26.5693 62.5394 27.0175 62.1745 27.3702L49.5663 39.5824L52.5428 56.8355C52.9239 59.0499 50.5834 60.7362 48.5821 59.692L32.9973 51.5425L17.4095 59.692C15.4111 60.7392 13.0707 59.0499 13.4518 56.8325L16.4283 39.5794L3.82007 27.3672C3.45697 27.0143 3.20016 26.5665 3.07883 26.0749C2.95751 25.5833 2.97654 25.0675 3.13376 24.5861C3.29098 24.1048 3.58008 23.6772 3.9682 23.352C4.35633 23.0267 4.82791 22.8169 5.32934 22.7464L22.7565 20.2109Z" fill="#FFD953" stroke="black" stroke-width="5" stroke-linecap="round" stroke-linejoin="round"/>
</svg>
