<svg width="42" height="42" viewBox="0 0 42 42" fill="none" xmlns="http://www.w3.org/2000/svg">
<circle cx="21" cy="21" r="19" fill="#E6E6EF"/>
<circle cx="21" cy="21" r="20" stroke="black" stroke-opacity="0.5" stroke-width="2"/>
<path fill-rule="evenodd" clip-rule="evenodd" d="M15.9882 25.9718C21.2065 31.19 26.042 31.7614 27.4615 31.8143C29.177 31.8768 30.9277 30.4762 31.685 29.0417C30.4771 27.6248 28.9042 26.5255 27.1806 25.334C26.1655 26.3491 24.9142 28.2355 23.2449 27.5597C22.2962 27.1783 19.9538 26.0994 17.9072 24.0515C15.8593 22.0049 14.7817 19.6625 14.3977 18.7152C13.7218 17.0445 15.6137 15.7892 16.6302 14.7727C15.4386 13.022 14.3583 11.4083 12.9442 10.2615C11.4893 11.0215 10.0806 12.7587 10.1444 14.4972C10.1973 15.9168 10.7687 20.7523 15.9882 25.9718ZM27.3611 34.5259C25.4068 34.454 19.8683 33.6899 14.0679 27.8895C8.26881 22.0904 7.50474 16.5533 7.43146 14.5976C7.32288 11.6173 9.6056 8.72255 12.2425 7.59205C12.5601 7.45493 12.9078 7.40273 13.2516 7.44056C13.5954 7.47839 13.9235 7.60495 14.2036 7.80783C16.3859 9.39976 17.891 11.8114 19.1843 13.7005C19.4534 14.0934 19.5766 14.5679 19.5328 15.042C19.4889 15.5161 19.2807 15.96 18.9441 16.2968L17.1038 18.1384C17.5313 19.0816 18.4012 20.7075 19.8262 22.1325C21.2512 23.5575 22.8771 24.4274 23.8217 24.8549L25.6606 23.0146C25.9987 22.6774 26.4444 22.4694 26.9201 22.427C27.3957 22.3846 27.8712 22.5104 28.2636 22.7825C30.1907 24.118 32.4545 25.6013 34.1047 27.7144C34.3241 27.9966 34.4636 28.3325 34.5087 28.687C34.5539 29.0415 34.5029 29.4017 34.3612 29.7298C33.2253 32.3803 30.3509 34.6358 27.3611 34.5259Z" fill="black"/>
</svg>
