<svg width="31" height="31" viewBox="0 0 31 31" fill="none" xmlns="http://www.w3.org/2000/svg">
<path d="M3.32675 22.1316C2.043 16.9966 1.40112 14.4306 2.74921 12.7039C4.09581 10.9773 6.74412 10.9773 12.0363 10.9773H18.9637C24.2574 10.9773 26.9027 10.9773 28.2508 12.7039C29.5989 14.4291 28.957 16.9981 27.6732 22.1316C26.8563 25.3979 26.4493 27.0302 25.2314 27.9818C24.0135 28.9319 22.3302 28.9319 18.9637 28.9319H12.0363C8.66976 28.9319 6.98651 28.9319 5.76859 27.9818C4.55066 27.0302 4.14219 25.3979 3.32675 22.1316Z" stroke="#204F6A" stroke-width="2.5"/>
<path d="M26.7206 11.7221L25.6583 7.82448C25.2484 6.32078 25.0434 5.56967 24.6229 5.00261C24.2037 4.43923 23.6344 4.00523 22.9801 3.75027C22.3218 3.49292 21.5437 3.49292 19.9877 3.49292M4.27734 11.7221L5.33966 7.82448C5.74962 6.32078 5.95461 5.56967 6.37504 5.00261C6.79425 4.43923 7.36358 4.00523 8.01789 3.75027C8.67623 3.49292 9.45427 3.49292 11.0103 3.49292" stroke="#204F6A" stroke-width="2.5"/>
<path d="M11.0117 3.49622C11.0117 3.0994 11.1694 2.71883 11.45 2.43823C11.7305 2.15764 12.1111 2 12.5079 2H18.4928C18.8896 2 19.2702 2.15764 19.5508 2.43823C19.8314 2.71883 19.989 3.0994 19.989 3.49622C19.989 3.89304 19.8314 4.27361 19.5508 4.55421C19.2702 4.8348 18.8896 4.99244 18.4928 4.99244H12.5079C12.1111 4.99244 11.7305 4.8348 11.45 4.55421C11.1694 4.27361 11.0117 3.89304 11.0117 3.49622Z" stroke="#204F6A" stroke-width="2.5"/>
<path d="M9.51562 16.9587V22.9436M21.4854 16.9587V22.9436M15.5005 16.9587V22.9436" stroke="#204F6A" stroke-width="2.5" stroke-linecap="round" stroke-linejoin="round"/>
</svg>
