<svg width="30" height="26" viewBox="0 0 30 26" fill="none" xmlns="http://www.w3.org/2000/svg">
<path d="M21.4655 0C18.8677 0 16.5621 1.02543 15 2.78793C13.4379 1.02543 11.1323 0 8.53448 0C6.27184 0.00273763 4.10265 0.902783 2.50272 2.50272C0.902783 4.10265 0.00273763 6.27184 0 8.53448C0 17.8888 13.6823 25.3629 14.2642 25.6772C14.4903 25.7989 14.7432 25.8627 15 25.8627C15.2568 25.8627 15.5097 25.7989 15.7358 25.6772C16.3177 25.3629 30 17.8888 30 8.53448C29.9973 6.27184 29.0972 4.10265 27.4973 2.50272C25.8973 0.902783 23.7282 0.00273763 21.4655 0ZM20.7556 18.4086C18.9547 19.9369 17.0295 21.3123 15 22.5207C12.9705 21.3123 11.0453 19.9369 9.2444 18.4086C6.44224 16.0047 3.10345 12.3388 3.10345 8.53448C3.10345 7.09408 3.67564 5.71268 4.69416 4.69416C5.71268 3.67564 7.09408 3.10345 8.53448 3.10345C10.8362 3.10345 12.7629 4.31897 13.5634 6.27672C13.6799 6.56212 13.8787 6.80635 14.1346 6.97827C14.3905 7.15019 14.6917 7.242 15 7.242C15.3083 7.242 15.6095 7.15019 15.8654 6.97827C16.1213 6.80635 16.3201 6.56212 16.4366 6.27672C17.2371 4.31897 19.1638 3.10345 21.4655 3.10345C22.9059 3.10345 24.2873 3.67564 25.3058 4.69416C26.3244 5.71268 26.8966 7.09408 26.8966 8.53448C26.8966 12.3388 23.5578 16.0047 20.7556 18.4086Z" fill="#204F6A"/>
</svg>
