<svg width="100" height="85" viewBox="0 0 180 85" fill="none" xmlns="http://www.w3.org/2000/svg">
<g filter="url(#filter0_i_111_520)">
<path fill-rule="evenodd" clip-rule="evenodd" d="M65.5135 0C52.5724 0 42.0817 10.5431 42.0817 23.5486C42.0817 36.5542 52.5724 47.0973 65.5135 47.0973H119.072C125.421 50.4495 126.657 54.1769 132.239 61.8069L132.264 61.789C133.37 73.5619 143.611 82.7853 156.082 82.7853C169.291 82.7853 180 72.4377 180 59.6733C180 46.9089 169.291 36.5612 156.082 36.5612C151.318 36.5612 146.879 37.9073 143.151 40.2275C132.944 38.6935 129.333 33.3812 129.114 30.7107V24.0292C129.114 10.7583 118.409 0 105.204 0H65.5135ZM129.114 36.471V47.0973H121.463C127.088 50.3156 127.155 53.5725 132.169 60.1146C132.167 59.9678 132.165 59.8206 132.165 59.6733C132.165 52.0123 136.022 45.2219 141.962 41.0167C132.485 39.5181 134.176 38.7362 129.114 36.471ZM23.9173 84.1206C37.1266 84.1206 47.8347 73.7729 47.8347 61.0085C47.8347 48.2441 37.1266 37.8965 23.9173 37.8965C10.7082 37.8965 0 48.2441 0 61.0085C0 73.7729 10.7082 84.1206 23.9173 84.1206Z" fill="#B4B4C1"/>
<path d="M129.114 36.471V47.0973H121.463C127.088 50.3156 127.155 53.5725 132.169 60.1146C132.167 59.9678 132.165 59.8206 132.165 59.6733C132.165 52.0123 136.022 45.2219 141.962 41.0167C132.485 39.5181 134.176 38.7362 129.114 36.471Z" fill="#B4B4C1"/>
</g>
<defs>
<filter id="filter0_i_111_520" x="0" y="0" width="180" height="84.1206" filterUnits="userSpaceOnUse" color-interpolation-filters="sRGB">
<feFlood flood-opacity="0" result="BackgroundImageFix"/>
<feBlend mode="normal" in="SourceGraphic" in2="BackgroundImageFix" result="shape"/>
<feColorMatrix in="SourceAlpha" type="matrix" values="0 0 0 0 0 0 0 0 0 0 0 0 0 0 0 0 0 0 127 0" result="hardAlpha"/>
<feOffset/>
<feGaussianBlur stdDeviation="7.5"/>
<feComposite in2="hardAlpha" operator="arithmetic" k2="-1" k3="1"/>
<feColorMatrix type="matrix" values="0 0 0 0 0 0 0 0 0 0 0 0 0 0 0 0 0 0 0.4 0"/>
<feBlend mode="normal" in2="shape" result="effect1_innerShadow_111_520"/>
</filter>
</defs>
</svg>
