<svg width="42" height="42" viewBox="0 0 42 42" fill="none" xmlns="http://www.w3.org/2000/svg">
<circle cx="21" cy="21" r="19" fill="#E6E6EF"/>
<circle cx="21" cy="21" r="20" stroke="black" stroke-opacity="0.5" stroke-width="2"/>
<path d="M15.2992 7.42859H26.6992C31.042 7.42859 34.5706 10.9572 34.5706 15.3V26.7C34.5706 28.7877 33.7413 30.7898 32.2651 32.266C30.7889 33.7421 28.7868 34.5714 26.6992 34.5714H15.2992C10.9563 34.5714 7.42773 31.0429 7.42773 26.7V15.3C7.42773 13.2124 8.25704 11.2103 9.73322 9.73408C11.2094 8.2579 13.2115 7.42859 15.2992 7.42859ZM15.0277 10.1429C13.732 10.1429 12.4893 10.6576 11.573 11.5739C10.6568 12.4901 10.142 13.7328 10.142 15.0286V26.9714C10.142 29.6722 12.327 31.8572 15.0277 31.8572H26.9706C28.2664 31.8572 29.5091 31.3424 30.4253 30.4262C31.3416 29.5099 31.8563 28.2672 31.8563 26.9714V15.0286C31.8563 12.3279 29.6713 10.1429 26.9706 10.1429H15.0277ZM28.1242 12.1786C28.5741 12.1786 29.0056 12.3573 29.3237 12.6755C29.6419 12.9936 29.8206 13.4251 29.8206 13.875C29.8206 14.3249 29.6419 14.7564 29.3237 15.0746C29.0056 15.3927 28.5741 15.5714 28.1242 15.5714C27.6742 15.5714 27.2427 15.3927 26.9246 15.0746C26.6065 14.7564 26.4277 14.3249 26.4277 13.875C26.4277 13.4251 26.6065 12.9936 26.9246 12.6755C27.2427 12.3573 27.6742 12.1786 28.1242 12.1786ZM20.9992 14.2143C22.7988 14.2143 24.5248 14.9292 25.7974 16.2018C27.07 17.4744 27.7849 19.2003 27.7849 21C27.7849 22.7997 27.07 24.5257 25.7974 25.7982C24.5248 27.0708 22.7988 27.7857 20.9992 27.7857C19.1995 27.7857 17.4735 27.0708 16.2009 25.7982C14.9284 24.5257 14.2134 22.7997 14.2134 21C14.2134 19.2003 14.9284 17.4744 16.2009 16.2018C17.4735 14.9292 19.1995 14.2143 20.9992 14.2143ZM20.9992 16.9286C19.9194 16.9286 18.8838 17.3575 18.1202 18.1211C17.3567 18.8846 16.9277 19.9202 16.9277 21C16.9277 22.0798 17.3567 23.1154 18.1202 23.879C18.8838 24.6425 19.9194 25.0714 20.9992 25.0714C22.079 25.0714 23.1146 24.6425 23.8781 23.879C24.6416 23.1154 25.0706 22.0798 25.0706 21C25.0706 19.9202 24.6416 18.8846 23.8781 18.1211C23.1146 17.3575 22.079 16.9286 20.9992 16.9286Z" fill="black"/>
</svg>
