<svg width="65" height="10" viewBox="0 0 80 38" fill="none" xmlns="http://www.w3.org/2000/svg">
<path fill-rule="evenodd" clip-rule="evenodd" d="M29.1171 0C23.3655 0 18.703 4.6858 18.703 10.4661C18.703 16.2463 23.3655 20.9321 29.1171 20.9321H52.9209C55.7425 22.422 56.2919 24.0786 58.773 27.4697L58.784 27.4618C59.2754 32.6942 63.827 36.7935 69.3699 36.7935C75.2405 36.7935 80 32.1945 80 26.5215C80 20.8484 75.2405 16.2494 69.3699 16.2494C67.2522 16.2494 65.2795 16.8477 63.6226 17.8789C59.0863 17.1971 57.4815 14.8361 57.3841 13.6492V10.6797C57.3841 4.78145 52.6263 0 46.7574 0H29.1171ZM57.3841 16.2093V20.9321H53.9836C56.4834 22.3625 56.5133 23.81 58.7419 26.7176C58.7407 26.6524 58.7398 26.587 58.7398 26.5215C58.7398 23.1166 60.4541 20.0986 63.0942 18.2297C58.8822 17.5636 59.6336 17.2161 57.3841 16.2093ZM10.6299 37.3869C16.5007 37.3869 21.2599 32.788 21.2599 27.1149C21.2599 21.4418 16.5007 16.8429 10.6299 16.8429C4.75918 16.8429 0 21.4418 0 27.1149C0 32.788 4.75918 37.3869 10.6299 37.3869Z" fill="#307095"/>
<path d="M57.3841 16.2093V20.9321H53.9836C56.4834 22.3625 56.5133 23.81 58.7419 26.7176C58.7407 26.6524 58.7398 26.587 58.7398 26.5215C58.7398 23.1166 60.4541 20.0986 63.0942 18.2297C58.8822 17.5636 59.6336 17.2161 57.3841 16.2093Z" fill="#307095"/>
</svg>
