<svg width="48" height="47" viewBox="0 0 48 47" fill="none" xmlns="http://www.w3.org/2000/svg">
<path d="M13.44 32.587C13.9492 32.4416 14.4966 32.5002 14.9617 32.7499C15.4268 32.9996 15.7715 33.4201 15.92 33.9187C16.0685 34.4173 16.0087 34.9532 15.7536 35.4086C15.4986 35.864 15.0692 36.2016 14.56 36.347C13.56 36.6329 12.84 36.9345 12.378 37.2087C12.854 37.4887 13.606 37.802 14.65 38.0938C16.96 38.7401 20.266 39.167 24 39.167C27.734 39.167 31.04 38.7401 33.35 38.0938C34.396 37.802 35.146 37.4887 35.622 37.2087C35.162 36.9345 34.442 36.6329 33.442 36.347C32.9408 36.1952 32.5206 35.8566 32.272 35.4042C32.0233 34.9519 31.9662 34.4219 32.1128 33.9287C32.2595 33.4355 32.5982 33.0184 33.056 32.7675C33.5137 32.5165 34.0539 32.4517 34.56 32.587C35.896 32.9689 37.12 33.4585 38.06 34.0871C38.93 34.6726 40 35.6929 40 37.2087C40 38.742 38.904 39.7702 38.02 40.3557C37.064 40.9863 35.814 41.4778 34.448 41.8597C31.692 42.6332 28 43.0837 24 43.0837C20 43.0837 16.308 42.6332 13.552 41.8597C12.186 41.4778 10.936 40.9863 9.98 40.3557C9.096 39.7682 8 38.742 8 37.2087C8 35.6929 9.07 34.6726 9.94 34.0871C10.88 33.4585 12.104 32.9689 13.44 32.587ZM24 3.91699C27.9782 3.91699 31.7936 5.46442 34.6066 8.21886C37.4196 10.9733 39 14.7091 39 18.6045C39 23.6335 36.2 27.7225 33.3 30.6287C32.1472 31.7722 30.9084 32.8294 29.594 33.7914C28.406 34.6648 25.69 36.302 25.69 36.302C25.1749 36.5886 24.5925 36.7394 24 36.7394C23.4075 36.7394 22.8251 36.5886 22.31 36.302C20.9615 35.5376 19.6581 34.6994 18.406 33.7914C17.0911 32.83 15.8522 31.7728 14.7 30.6287C11.8 27.7225 9 23.6335 9 18.6045C9 14.7091 10.5804 10.9733 13.3934 8.21886C16.2064 5.46442 20.0218 3.91699 24 3.91699ZM24 7.83366C21.0826 7.83366 18.2847 8.96844 16.2218 10.9884C14.1589 13.0083 13 15.7479 13 18.6045C13 22.1608 14.992 25.3177 17.56 27.887C19.492 29.8218 21.62 31.2945 23.094 32.1992L24 32.7358L24.906 32.1992C26.378 31.2945 28.508 29.8218 30.44 27.889C33.008 25.3177 35 22.1608 35 18.6045C35 15.7479 33.8411 13.0083 31.7782 10.9884C29.7153 8.96844 26.9174 7.83366 24 7.83366ZM24 12.7295C24.7879 12.7295 25.5681 12.8815 26.2961 13.1767C27.0241 13.4719 27.6855 13.9047 28.2426 14.4502C28.7998 14.9958 29.2417 15.6434 29.5433 16.3562C29.8448 17.069 30 17.833 30 18.6045C30 19.376 29.8448 20.14 29.5433 20.8528C29.2417 21.5655 28.7998 22.2132 28.2426 22.7587C27.6855 23.3043 27.0241 23.737 26.2961 24.0323C25.5681 24.3275 24.7879 24.4795 24 24.4795C22.4087 24.4795 20.8826 23.8605 19.7574 22.7587C18.6321 21.657 18 20.1626 18 18.6045C18 17.0463 18.6321 15.552 19.7574 14.4502C20.8826 13.3485 22.4087 12.7295 24 12.7295ZM24 16.6462C23.4696 16.6462 22.9609 16.8525 22.5858 17.2197C22.2107 17.587 22 18.0851 22 18.6045C22 19.1239 22.2107 19.622 22.5858 19.9892C22.9609 20.3565 23.4696 20.5628 24 20.5628C24.5304 20.5628 25.0391 20.3565 25.4142 19.9892C25.7893 19.622 26 19.1239 26 18.6045C26 18.0851 25.7893 17.587 25.4142 17.2197C25.0391 16.8525 24.5304 16.6462 24 16.6462Z" fill="black" fill-opacity="0.7"/>
</svg>
