<svg width="42" height="42" viewBox="0 0 42 42" fill="none" xmlns="http://www.w3.org/2000/svg">
<circle cx="21" cy="21" r="19" fill="#E6E6EF"/>
<circle cx="21" cy="21" r="20" stroke="black" stroke-opacity="0.5" stroke-width="2"/>
<path d="M19.778 7.42859V16.1333C17.8988 15.7845 15.9578 16.0234 14.2192 16.8175C12.4807 17.6116 11.0291 18.9223 10.0623 20.571C9.09546 22.2198 8.66031 24.1264 8.8161 26.0314C8.97189 27.9363 9.71105 29.747 10.9329 31.2167C12.1548 32.6864 13.8 33.7439 15.6445 34.2449C17.4889 34.746 19.443 34.6664 21.2406 34.0169C23.0382 33.3674 24.5919 32.1797 25.6901 30.6154C26.7883 29.0511 27.3777 27.1863 27.378 25.275V20.2047C28.837 20.8251 30.407 21.1419 31.9923 21.1357H33.3494V13.5357H31.9923C29.4097 13.5357 27.378 11.4498 27.378 8.78573V7.42859H19.778ZM22.4923 10.1429H24.7832C25.3179 13.1557 27.606 15.566 30.6352 16.1279V18.3237C29.2264 18.1174 27.9548 17.5882 26.7768 16.7997L24.6637 15.3855V25.275C24.6636 26.5913 24.2689 27.8773 23.5305 28.9669C22.7921 30.0565 21.7439 30.8997 20.5214 31.3877C19.2989 31.8756 17.9583 31.9857 16.6725 31.704C15.3868 31.4222 14.215 30.7614 13.3087 29.8069C12.4023 28.8525 11.8029 27.6482 11.5879 26.3496C11.3728 25.051 11.5521 23.7178 12.1025 22.5221C12.6529 21.3265 13.5491 20.3233 14.6754 19.6421C15.8017 18.961 17.1064 18.6332 18.4209 18.701V20.8779C17.5367 20.8097 16.6524 21.0096 15.8835 21.4515C15.1147 21.8935 14.4969 22.5569 14.1108 23.3553C13.7247 24.1537 13.5883 25.05 13.7193 25.9271C13.8503 26.8042 14.2427 27.6215 14.8452 28.2722C15.4477 28.9229 16.2324 29.3769 17.0969 29.5749C17.9613 29.7729 18.8654 29.7057 19.6911 29.3821C20.5168 29.0585 21.2258 28.4935 21.7255 27.7608C22.2252 27.0281 22.4924 26.1619 22.4923 25.275V10.1429ZM16.3852 25.275C16.3852 24.8251 16.5639 24.3936 16.882 24.0755C17.2002 23.7573 17.6317 23.5786 18.0816 23.5786C18.5315 23.5786 18.963 23.7573 19.2811 24.0755C19.5993 24.3936 19.778 24.8251 19.778 25.275C19.778 25.7249 19.5993 26.1564 19.2811 26.4746C18.963 26.7927 18.5315 26.9714 18.0816 26.9714C17.6317 26.9714 17.2002 26.7927 16.882 26.4746C16.5639 26.1564 16.3852 25.7249 16.3852 25.275Z" fill="black"/>
</svg>
